<svg xmlns="http://www.w3.org/2000/svg" width="1200" height="630" viewBox="0 0 1200 630" role="img" aria-label="브레인시티 메디스파크 로제비앙 모아엘가 썸네일">
  <defs>
    <linearGradient id="sky" x1="0" y1="0" x2="1" y2="1">
      <stop stop-color="#eef7f5"/>
      <stop offset=".38" stop-color="#d9ece9"/>
      <stop offset="1" stop-color="#f3dfb1"/>
    </linearGradient>
    <linearGradient id="deep" x1="0" y1="0" x2="1" y2="1">
      <stop stop-color="#123e44"/>
      <stop offset=".56" stop-color="#092b32"/>
      <stop offset="1" stop-color="#05171d"/>
    </linearGradient>
    <linearGradient id="gold" x1="0" y1="0" x2="1" y2="1">
      <stop stop-color="#fff0bd"/>
      <stop offset=".42" stop-color="#d8a94d"/>
      <stop offset="1" stop-color="#9a6922"/>
    </linearGradient>
    <radialGradient id="glow" cx=".72" cy=".2" r=".62">
      <stop stop-color="#f8d982" stop-opacity=".7"/>
      <stop offset=".45" stop-color="#0f747d" stop-opacity=".22"/>
      <stop offset="1" stop-color="#0f747d" stop-opacity="0"/>
    </radialGradient>
    <filter id="softShadow" x="-20%" y="-20%" width="140%" height="140%">
      <feDropShadow dx="0" dy="22" stdDeviation="22" flood-color="#06171c" flood-opacity=".28"/>
    </filter>
    <pattern id="grid" width="38" height="38" patternUnits="userSpaceOnUse">
      <path d="M38 0H0v38" fill="none" stroke="#fff" stroke-opacity=".09" stroke-width="1"/>
    </pattern>
  </defs>
  <rect width="1200" height="630" fill="url(#sky)"/>
  <rect width="1200" height="630" fill="url(#glow)"/>
  <path d="M0 505C145 446 265 485 396 430c147-62 270-173 455-128 140 34 219 129 349 98v230H0Z" fill="#123e44" opacity=".18"/>
  <g transform="translate(758 94)" opacity=".92" filter="url(#softShadow)">
    <rect x="0" y="132" width="86" height="306" rx="9" fill="#e9f0ee"/>
    <rect x="112" y="72" width="98" height="366" rx="10" fill="#f8fbfa"/>
    <rect x="238" y="0" width="112" height="438" rx="12" fill="#e7eeee"/>
    <rect x="378" y="92" width="88" height="346" rx="10" fill="#f5f8f7"/>
    <g fill="#123e44" opacity=".18">
      <rect x="20" y="158" width="14" height="28" rx="2"/>
      <rect x="52" y="158" width="14" height="28" rx="2"/>
      <rect x="20" y="206" width="14" height="28" rx="2"/>
      <rect x="52" y="206" width="14" height="28" rx="2"/>
      <rect x="136" y="106" width="16" height="30" rx="2"/>
      <rect x="174" y="106" width="16" height="30" rx="2"/>
      <rect x="136" y="160" width="16" height="30" rx="2"/>
      <rect x="174" y="160" width="16" height="30" rx="2"/>
      <rect x="266" y="42" width="18" height="34" rx="2"/>
      <rect x="310" y="42" width="18" height="34" rx="2"/>
      <rect x="266" y="102" width="18" height="34" rx="2"/>
      <rect x="310" y="102" width="18" height="34" rx="2"/>
      <rect x="402" y="128" width="16" height="30" rx="2"/>
      <rect x="436" y="128" width="16" height="30" rx="2"/>
    </g>
  </g>
  <rect x="56" y="52" width="650" height="526" rx="38" fill="url(#deep)" filter="url(#softShadow)"/>
  <rect x="56" y="52" width="650" height="526" rx="38" fill="url(#grid)"/>
  <path d="M96 527h568" stroke="url(#gold)" stroke-width="3" stroke-linecap="round" opacity=".9"/>
  <g transform="translate(96 95)">
    <rect width="318" height="46" rx="23" fill="#f8f4e8" opacity=".12"/>
    <text x="24" y="30" fill="#f8f4e8" font-family="Pretendard, Apple SD Gothic Neo, Noto Sans KR, Arial, sans-serif" font-size="18" font-weight="800" letter-spacing="3">BRAIN CITY MEDIPARK</text>
  </g>
  <text x="96" y="210" fill="#fff" font-family="Pretendard, Apple SD Gothic Neo, Noto Sans KR, Arial, sans-serif" font-size="72" font-weight="900" letter-spacing="-4">
    <tspan x="96" dy="0">브레인시티</tspan>
    <tspan x="96" dy="88">메디스파크</tspan>
  </text>
  <text x="96" y="388" fill="#f7d889" font-family="Pretendard, Apple SD Gothic Neo, Noto Sans KR, Arial, sans-serif" font-size="34" font-weight="900" letter-spacing="-1.2">
    학교 · 병원 · 공원 · 미래가치를 가까이 누리는 중심 입지
  </text>
  <text x="96" y="446" fill="#dce8e7" font-family="Pretendard, Apple SD Gothic Neo, Noto Sans KR, Arial, sans-serif" font-size="25" font-weight="700" letter-spacing="-0.7">
    로제비앙 모아엘가 관심고객 등록 · 타입별 상담 · 방문예약
  </text>
  <g transform="translate(96 488)">
    <rect width="156" height="48" rx="24" fill="#fff" opacity=".12"/>
    <rect x="176" width="180" height="48" rx="24" fill="#fff" opacity=".12"/>
    <rect x="376" width="188" height="48" rx="24" fill="url(#gold)"/>
    <text x="28" y="31" fill="#fff" font-family="Arial, sans-serif" font-size="20" font-weight="800">1,215세대</text>
    <text x="204" y="31" fill="#fff" font-family="Arial, sans-serif" font-size="20" font-weight="800">84A · 84B · 101</text>
    <text x="408" y="31" fill="#102f35" font-family="Pretendard, Apple SD Gothic Neo, Noto Sans KR, Arial, sans-serif" font-size="20" font-weight="900">상담 신청</text>
  </g>
  <g transform="translate(780 500)">
    <circle cx="40" cy="40" r="40" fill="url(#deep)"/>
    <path d="M22 55V26l18 11 18-11v29h-10V40l-8 5-8-5v15H22Z" fill="url(#gold)"/>
    <path d="M57 24h-8v-5h-6v5h-8v6h8v8h6v-8h8v-6Z" fill="#f8f4e8"/>
    <text x="98" y="34" fill="#123e44" font-family="Arial, sans-serif" font-size="22" font-weight="900">REAL-SALES</text>
    <text x="98" y="66" fill="#5b6d74" font-family="Pretendard, Apple SD Gothic Neo, Noto Sans KR, Arial, sans-serif" font-size="20" font-weight="700">010-6689-2348</text>
  </g>
</svg>
